{"title":"Browse TV torrents\t PBS James Baker The Man Who Made Washington","uid":11910005,"size":1245572271,"categoryP":"video","categoryS":"tv_shows","magnet":"?xt=urn:btih:ab6c40d87c481cd6999a10d733b2ea547aaa058b&amp;dn=Browse+TV+torrents%09+PBS+James+Baker+The+Man+Who+Made+Washington+&amp;tr=udp%3A%2F%2Ftracker.openbittorrent.com%3A80&amp;tr=udp%3A%2F%2Fopen.demonii.com%3A1337&amp;tr=udp%3A%2F%2Ftracker.coppersurfer.tk%3A6969&amp;tr=udp%3A%2F%2Fexodus.desync.com%3A6969","seeders":2,"leechers":0,"uploader":"FreewareSys","files":4,"time":1431460485,"description":"[img]https://dump.bz/storage-1/0515/o5uHHrXs67T05yZhcFmu6d3yqDFE49bt.jpg[/img]\n\n\nGeneral\nFormat profile                           : Base Media\nCodec ID                                 : isom\nFile size                                : 1.16 GiB\nDuration                                 : 1h 26mn\nOverall bit rate mode                    : Variable\nOverall bit rate                         : 1 915 Kbps\nEncoded date                             : UTC 2015-04-03 12:38:16\nTagged date                              : UTC 2015-04-03 12:38:16\n\nVideo\nID                                       : 1\nFormat                                   : AVC\nFormat/Info                              : Advanced Video Codec\nFormat profile                           : &lt;a class=&quot;__cf_email__&quot; href=&quot;/cdn-cgi/l/email-protection&quot; data-cfemail=&quot;eaa2838d82aaa6dec4db&quot;&gt;[email&amp;#160;protected]&lt;/a&gt;&lt;script cf-hash='f9e31' type=&quot;text/javascript&quot;&gt;\n/* &lt;![CDATA[ */!function(){try{var t=&quot;currentScript&quot;in document?document.currentScript:function(){for(var t=document.getElementsByTagName(&quot;script&quot;),e=t.length;e--;)if(t[e].getAttribute(&quot;cf-hash&quot;))return t[e]}();if(t&amp;&amp;t.previousSibling){var e,r,n,i,c=t.previousSibling,a=c.getAttribute(&quot;data-cfemail&quot;);if(a){for(e=&quot;&quot;,r=parseInt(a.substr(0,2),16),n=2;a.length-n;n+=2)i=parseInt(a.substr(n,2),16)^r,e+=String.fromCharCode(i);e=document.createTextNode(e),c.parentNode.replaceChild(e,c)}}}catch(u){}}();/* ]]&gt; */&lt;/script&gt;\nFormat settings, CABAC                   : Yes\nFormat settings, ReFrames                : 6 frames\nCodec ID                                 : avc1\nCodec ID/Info                            : Advanced Video Coding\nDuration                                 : 1h 26mn\nBit rate                                 : 1 763 Kbps\nMaximum bit rate                         : 9 160 Kbps\nWidth                                    : 1 280 pixels\nHeight                                   : 720 pixels\nDisplay aspect ratio                     : 16:9\nFrame rate mode                          : Constant\nFrame rate                               : 29.970 fps\nColor space                              : YUV\nChroma subsampling                       : 4:2:0\nBit depth                                : 8 bits\nScan type                                : Progressive\nBits/(Pixel*Frame)                       : 0.064\nStream size                              : 1.07 GiB (92%)\nWriting library                          : x264 core 142 r2479 dd79a61\n\nAudio\nID                                       : 2\nFormat                                   : AAC\nFormat/Info                              : Advanced Audio Codec\nFormat profile                           : LC\nCodec ID                                 : 40\nDuration                                 : 1h 26mn\nBit rate mode                            : Variable\nBit rate                                 : 147 Kbps\nMaximum bit rate                         : 207 Kbps\nChannel(s)                               : 2 channels\nChannel positions                        : Front: L R\nSampling rate                            : 48.0 KHz\nCompression mode                         : Lossy\nStream size                              : 91.4 MiB (8%)\nLanguage                                 : English\nEncoded date                             : UTC 2015-04-03 12:33:38\nTagged date                              : UTC 2015-04-03 12:38:49\n\nText\nID                                       : 3\nFormat                                   : Timed Text\nCodec ID                                 : tx3g\nDuration                                 : 1h 26mn\nBit rate mode                            : Variable\nBit rate                                 : 138 bps\nStream size                              : 87.3 KiB (0%)\nLanguage                                 : English\nEncoded date                             : UTC 2015-04-03 12:38:49\nTagged date                              : UTC 2015-04-03 12:38:49\n\n\n\nScreen Shot\n\n[img]http://s29.postimg.org/ayin4dsuf/f_Ga_X88pefjek_Rd_C4_TZz0c_Cz_Dgeilot_OE.jpg[/img]\n\n\n\n[color=red]Special thanks to encoder for Encoded Movie for my all upload[/color]\n\n[color=red][b]Seed With High Speed Seed Box[/b][/color][/center]","torrent":{"xt":"urn:btih:ab6c40d87c481cd6999a10d733b2ea547aaa058b","amp;dn":"Browse+TV+torrents%09+PBS+James+Baker+The+Man+Who+Made+Washington+","amp;tr":["udp%3A%2F%2Ftracker.openbittorrent.com%3A80","udp%3A%2F%2Fopen.demonii.com%3A1337","udp%3A%2F%2Ftracker.coppersurfer.tk%3A6969","udp%3A%2F%2Fexodus.desync.com%3A6969"],"infoHash":"ab6c40d87c481cd6999a10d733b2ea547aaa058b","infoHashBuffer":{"type":"Buffer","data":[171,108,64,216,124,72,28,214,153,154,16,215,51,178,234,84,122,170,5,139]},"announce":[],"urlList":[]}}